<svg xmlns="http://www.w3.org/2000/svg" width="751.356" height="343.684" viewBox="0 0 751.356 343.684">
  <g id="グループ_38" data-name="グループ 38" transform="translate(-330 -935.316)">
    <path id="パス_51" data-name="パス 51" d="M35.1-45.684v34.938h4V-41.958H52.164v-3.726Zm52.758,36.4A26.757,26.757,0,0,1,81.27-5.454a26.161,26.161,0,0,1-6.642-3.834ZM68.85-21.384H93.042v2.16H68.85Zm0-5.724H93.042v2.16H68.85Zm0-5.67H93.042v2.106H68.85Zm24.732,18.9-1.134.27H77.112c.648-.648,1.242-1.3,1.836-2H99.522V-36.342H83.214a19.117,19.117,0,0,0,.756-2.106h20.142v-5.184H57.942v5.184H77c-.108.7-.216,1.4-.378,2.106H62.694v20.736H71.28c-3.24,2.862-8.262,5.4-15.174,7.236a16.838,16.838,0,0,1,3.726,4.482A66.952,66.952,0,0,0,68.8-7.614,34.265,34.265,0,0,0,74.25-3.078,100.5,100.5,0,0,1,55.566-.432,20.135,20.135,0,0,1,57.942,4.7C65.988,3.942,73.98,2.646,80.838.27,87.048,2.7,94.5,4.1,103.086,4.7A28.5,28.5,0,0,1,106.7-1.026a103.216,103.216,0,0,1-18.2-2.16,27.126,27.126,0,0,0,9.072-8.208Zm26.838-3.51h6.7v3.672h-6.7Zm6.7-16.362v3.132h-6.7V-33.75Zm-6.7,8.046h6.7v3.4h-6.7ZM136.3-13.716H133V-33.75h3.672v-5.616H133V-45.09h-5.886v5.724h-6.7V-45.09h-5.778v5.724H110.43v5.616h4.212v20.034h-4.86V-8.1H136.3ZM116.478-7.722a24.985,24.985,0,0,1-7.128,8.748,36.248,36.248,0,0,1,5.13,3.834,37.987,37.987,0,0,0,7.992-10.8ZM144.45-18.9c.054-1.674.054-3.24.054-4.644v-2h7.776V-18.9Zm7.83-18.63v6.318H144.5V-37.53Zm6.21-5.832H138.51v19.818c0,7.02-.27,16.146-3.4,22.9a58.832,58.832,0,0,0-5.832-7.344l-4.86,2.646a53.689,53.689,0,0,1,5.778,8.154L134.676.27c-.162.324-.378.594-.54.918a18.552,18.552,0,0,1,5.076,3.618c2.916-4.86,4.266-11.61,4.86-17.982h8.208V-2.538c0,.864-.27,1.134-1.08,1.134-.756,0-3.348.054-5.67-.108a23.267,23.267,0,0,1,1.836,6.1c4,.054,6.75-.108,8.64-1.134s2.484-2.7,2.484-5.886Zm21.276-.324-.918.27H166.1V4.7H172.1v-42.39h4.752c-.972,3.78-2.214,8.64-3.348,12.1,3.186,3.618,4,6.966,4,9.5,0,1.512-.324,2.538-.972,3.024a2.689,2.689,0,0,1-1.566.486c-.7,0-1.512,0-2.538-.054a14.037,14.037,0,0,1,1.458,5.724,27.238,27.238,0,0,0,3.726-.108,6.934,6.934,0,0,0,3.186-1.242c1.728-1.188,2.538-3.456,2.484-7.02A16.077,16.077,0,0,0,179.118-26.3c1.674-4.212,3.51-10.152,5.022-14.85Zm12.1,15.39H204.39v4.536H191.862Zm12.528-9.5v4.266H191.862V-37.8Zm3.888,19.926a47.885,47.885,0,0,1-4.86,5.346,37.74,37.74,0,0,1-2.052-5.724h9.4v-25.11H185.706V-3.24c-2.106.324-4,.648-5.616.864l2.106,6.21C187.272,2.7,193.914,1.35,200.124-.108l-.486-5.616c-2.592.486-5.238.972-7.776,1.4V-18.252h3.888c2.43,10.53,6.642,18.576,14.58,22.788a22.807,22.807,0,0,1,4.158-5.454,20.44,20.44,0,0,1-8.478-7.074,95.039,95.039,0,0,0,7.29-6.318ZM226.26-34.182h33.21v7.4h6.642v-13.5H246.348v-5.4h-6.8v5.4h-19.6v13.5h6.318Zm20.034,23.544h14.85v-6.048h-14.85v-6.75H257.85v-6.1h-29.7v6.1h11.5V-4.374a14.536,14.536,0,0,1-7.344-8.478c.486-2.16.864-4.428,1.188-6.858l-6.7-.648c-.972,9.234-3.618,16.686-9.45,21.006a39.323,39.323,0,0,1,5.292,4.374,27.065,27.065,0,0,0,7.182-10.206c4.968,7.668,12.366,9.288,22.3,9.288h13.5a24.014,24.014,0,0,1,2.268-6.534c-3.618.162-12.528.162-15.444.162a55.8,55.8,0,0,1-6.156-.324ZM288.9,4.644V-30.294h-4V.918H271.836V4.644Zm59.4-16.2c2.592,2.646,5.508,6.318,6.642,8.8l3.24-2.052a37.906,37.906,0,0,0-6.858-8.586ZM375.57-25.11v-3.726H362.286v-6.858h10.8v-3.672h-10.8V-45.2h-4v5.832H347.76v3.672h10.53v6.858H344.574v3.726h20.412v6.48H346.572l-.486-3.186-6.264,1.89V-30.51h5.562v-3.78h-5.562V-45.144H336.15V-34.29h-4.212c.378-2.43.756-4.914,1.026-7.4l-3.51-.594c-.648,6.534-1.674,13.392-3.672,17.928a19.651,19.651,0,0,1,2.97,1.782,43.217,43.217,0,0,0,2.43-7.938h4.968v11.664c-3.78,1.134-7.29,2.106-10.044,2.862l1.08,3.78,8.964-2.754V4.1h3.672v-20.2l5.67-1.782v2.916h19.494V-.864c0,.81-.216.972-1.134,1.026s-3.834.054-7.128-.054a12.8,12.8,0,0,1,1.3,4c4.158,0,7.02-.054,8.694-.648,1.674-.7,2.214-1.89,2.214-4.266V-14.958h6.318V-18.63h-6.318v-6.48ZM387.018-39.1h13.716v10.368H387.018Zm5.562,19.71c.216-1.944.378-3.888.486-5.778h11.448v-17.55H383.292v17.55h5.886c-.54,9.774-1.836,20.79-9.18,26.622a10.274,10.274,0,0,1,2.754,2.754c5.67-4.7,8.208-12.15,9.4-19.98H401c-.486,10.638-1.026,14.742-2,15.822a2.177,2.177,0,0,1-1.836.594c-.972,0-3.51,0-6.156-.27a8.152,8.152,0,0,1,1.134,3.51,52.564,52.564,0,0,0,6.588,0,4.258,4.258,0,0,0,3.456-1.512c1.458-1.674,2-6.588,2.646-20.034,0-.486.054-1.728.054-1.728Zm21.33-19.332h-3.888v29.7h3.888Zm9.234-5.4v42.93c0,1.026-.432,1.35-1.4,1.35-1.026.054-4.428.108-8.208-.054a15.966,15.966,0,0,1,1.458,4.05c4.914,0,7.938-.054,9.72-.7,1.674-.7,2.43-1.944,2.43-4.644v-42.93Zm27.486.81H436.86v3.24h13.77Zm-3.024,32.616v9.018h-7.722v-9.018Zm3.456-3.294h-14.58V4.05h3.4V1.62h11.178ZM436.59-18.144h14.256V-21.33H436.59Zm14.256-10.53H436.59v3.186h14.256Zm-16.578-4.158H452.25v-3.294H434.268ZM469.8-7.614V-11.5h7.344v3.888ZM459.324-11.5H466.4v3.888h-7.074Zm7.074-6.75v3.942h-7.074v-3.942Zm10.746,0v3.942H469.8v-3.942ZM464.13-31.158h8.532v3.618H464.13Zm0-6.372h8.532v3.4H464.13ZM483.84-7.614h-2.97V-21.276H469.8v-3.078h13.986V-27.54H476.28v-3.618H481.9v-2.97H476.28v-3.4h6.7v-3.078h-6.7v-4.536h-3.618v4.536H464.13v-4.536h-3.672v4.536h-6.372v3.078h6.372v3.4h-5.292v2.97h5.292v3.618h-7.83v3.186H466.4v3.078H455.814V-7.614h-3.24v3.24h3.24V4.1h3.51V-4.374h17.82V.054c0,.648-.162.81-.918.81-.648.054-3.078.054-5.67,0a14.116,14.116,0,0,1,1.026,3.24c3.618,0,5.994-.054,7.4-.594,1.458-.54,1.89-1.512,1.89-3.4V-4.374h2.97ZM514.188-23.49c4.1-1.512,9.342-3.456,14.31-5.346l-.594-2.97c-5.616,2-11.286,4-15.174,5.238Zm10.584-10.26a29.781,29.781,0,0,0-7.236-4.914l-2.106,2.43a25.774,25.774,0,0,1,7.128,5.13Zm-17.928,9.018c0,.594-.162.81-.81.81-.648.054-2.808.054-5.184,0a14.882,14.882,0,0,1,1.026,2.97c3.4,0,5.562.054,6.966-.486,1.3-.54,1.728-1.458,1.728-3.24V-42.444H490.1v3.294h16.74ZM492.372-36.288A27.731,27.731,0,0,1,499.392-31l2.16-2.592a29.809,29.809,0,0,0-7.074-5.076ZM503.28-30.78c-5.346,2.106-10.8,4.1-14.472,5.238l1.566,3.294c3.888-1.512,8.748-3.51,13.5-5.562Zm23,21.114h-26.19V-14.9h26.19Zm-26.19,8.64V-6.48h26.19v5.454Zm10.8-22.086a46.456,46.456,0,0,1-2.106,5.076H496.152v22.3h3.942V2.16h26.19V4.266h4.05v-22.3h-17.6c.756-1.3,1.566-2.808,2.322-4.266ZM534.6-42.444H513.972v3.294H530.82v14.472c0,.648-.216.81-.864.864-.756,0-3.078,0-5.616-.108a11.849,11.849,0,0,1,1.134,3.186c3.564,0,5.832,0,7.29-.54,1.4-.594,1.836-1.512,1.836-3.4Zm48.6,6.318-2.754-2.106a14.786,14.786,0,0,1-4.05.432H555.552c-1.62,0-4.7-.216-5.454-.324v4.914c.594-.054,3.564-.27,5.454-.27h21.06c-1.35,4.482-5.292,10.854-8.964,15.012C562.086-12.258,554.094-5.832,545.4-2.43l3.456,3.618c7.992-3.618,15.282-9.558,21.06-15.768a124.679,124.679,0,0,1,14.85,16.038l3.78-3.24a149.8,149.8,0,0,0-15.768-16.146A68.343,68.343,0,0,0,581.85-33.75,15.49,15.49,0,0,1,583.2-36.126Zm39.744-6.264-4.914-1.566A19.5,19.5,0,0,1,616.3-39.69,49.486,49.486,0,0,1,598.968-20.9l3.618,2.808A58.907,58.907,0,0,0,616.9-32.4h18.252A45.114,45.114,0,0,1,627.8-17.442c-3.78-2.646-7.83-5.238-11.394-7.29l-2.916,2.97c3.456,2.16,7.56,4.968,11.448,7.776a47.371,47.371,0,0,1-20.9,13.014l3.888,3.348A51.242,51.242,0,0,0,628.506-11.34c2.214,1.782,4.266,3.456,5.886,4.914l3.186-3.726c-1.728-1.4-3.888-3.078-6.156-4.752A54.356,54.356,0,0,0,639.846-31.7a17.718,17.718,0,0,1,1.3-2.916l-3.564-2.16a10.762,10.762,0,0,1-3.564.54H619.38a18.1,18.1,0,0,0,1.134-1.944C621.054-39.15,622.026-40.986,622.944-42.39Zm30.564,19.008v5.292c1.674-.162,4.536-.27,7.506-.27H690.66c2.43,0,4.7.216,5.778.27v-5.292c-1.188.108-3.132.27-5.832.27H661.014C657.99-23.112,655.128-23.274,653.508-23.382ZM720.2-4.752a47.578,47.578,0,0,1-.378,6.372h5.238c-.216-1.782-.324-4.7-.324-6.372,0-1.566,0-9.72-.054-17.82A141.571,141.571,0,0,1,745.9-13.878l1.836-4.59a172.593,172.593,0,0,0-23.058-8.91v-8.8c0-1.62.216-3.942.378-5.616h-5.292a34.079,34.079,0,0,1,.432,5.616Zm61.02-8.316h3.564l1.08-20.952.108-6.372h-5.94l.108,6.372ZM783,.27a3.406,3.406,0,0,0,3.456-3.564A3.452,3.452,0,0,0,783-6.912a3.452,3.452,0,0,0-3.456,3.618A3.376,3.376,0,0,0,783,.27Z" transform="translate(294.9 981)"/>
    <path id="パス_52" data-name="パス 52" d="M1.408,0H16.16V-2.528h-6.5c-1.184,0-2.624.128-3.84.224,5.5-5.216,9.184-9.984,9.184-14.656,0-4.192-2.624-6.944-6.816-6.944-2.976,0-4.992,1.376-6.912,3.456l1.7,1.664A6.569,6.569,0,0,1,7.84-21.5c2.912,0,4.32,1.952,4.32,4.64,0,4.032-3.392,8.7-10.752,15.136ZM23.264-21.952V-19.1c.736-.032,2.336-.1,3.52-.1H42.112V-4.1H26.4a33.789,33.789,0,0,1-3.552-.192v2.912c.864-.064,2.3-.128,3.616-.128H42.112c-.032.768-.032,1.44-.064,1.792h2.88c-.032-.512-.128-1.952-.128-3.1V-19.328c0-.768.064-1.76.1-2.5-.64.032-1.6.064-2.368.064H26.752A32.292,32.292,0,0,1,23.264-21.952Zm29.76,8.1v3.136c.992-.1,2.688-.16,4.448-.16H75.04c1.44,0,2.784.128,3.424.16v-3.136c-.7.064-1.856.16-3.456.16H57.472C55.68-13.7,53.984-13.792,53.024-13.856Zm52.736-7.552-1.632-1.248a8.762,8.762,0,0,1-2.4.256H89.376c-.96,0-2.784-.128-3.232-.192v2.912c.352-.032,2.112-.16,3.232-.16h12.48a28.159,28.159,0,0,1-5.312,8.9A36.592,36.592,0,0,1,83.36-1.44L85.408.7A40.567,40.567,0,0,0,97.888-8.64a73.884,73.884,0,0,1,8.8,9.5l2.24-1.92a88.768,88.768,0,0,0-9.344-9.568A40.5,40.5,0,0,0,104.96-20,9.18,9.18,0,0,1,105.76-21.408Zm20.416-3.552-2.976-.32a33.435,33.435,0,0,1-.832,6.976c-1.92.16-3.808.32-4.864.352a28.179,28.179,0,0,1-2.848,0l.256,2.784c.832-.128,2.144-.288,2.88-.384.832-.1,2.368-.288,4.064-.448-1.088,4.288-3.488,11.584-6.752,15.968L117.728.992c3.36-5.408,5.536-12.64,6.72-17.248,1.408-.128,2.688-.224,3.456-.224,2.016,0,3.392.544,3.392,3.488,0,3.456-.512,7.616-1.536,9.792a2.643,2.643,0,0,1-2.784,1.632,15.571,15.571,0,0,1-3.936-.64l.416,2.656a17.4,17.4,0,0,0,3.776.48c2.08,0,3.648-.544,4.672-2.688,1.344-2.656,1.856-7.744,1.856-11.552,0-4.32-2.336-5.408-5.184-5.408-.768,0-2.112.1-3.616.224.352-1.76.64-3.648.832-4.576C125.92-23.68,126.048-24.384,126.176-24.96Zm11.008,3.392-2.336,1.056c2.272,2.656,4.768,8.288,5.7,11.584l2.5-1.184C141.952-13.088,139.168-18.976,137.184-21.568Zm17.7-3.52-.64,2.432c2.432.672,9.376,2.08,12.416,2.5l.608-2.464A87.407,87.407,0,0,1,154.88-25.088Zm-.7,5.824-2.688-.352a114.263,114.263,0,0,1-1.632,12.992l2.368.576a5.054,5.054,0,0,1,.96-1.6,12.543,12.543,0,0,1,9.92-4.288c3.264,0,5.632,1.824,5.632,4.384,0,4.384-4.928,7.3-15.04,6.048l.768,2.624c11.9.992,16.96-2.88,16.96-8.608,0-3.744-3.264-6.688-8.16-6.688a15.36,15.36,0,0,0-10.432,3.9C153.184-12.32,153.728-17.088,154.176-19.264Zm35.136-6.3h-2.848a16.875,16.875,0,0,1,.16,2.272c0,.576-.032,1.984-.032,3.648-.9.064-1.728.1-2.464.1a29.611,29.611,0,0,1-4.1-.256l.064,2.432a35.151,35.151,0,0,0,4.1.16c.672,0,1.472-.032,2.368-.1-.032,1.408-.032,2.912-.032,4.192V-11.3c-3.68,1.568-7.008,4.352-7.008,7.008,0,2.848,4.16,5.312,6.656,5.312,1.728,0,2.816-.96,2.816-3.936,0-1.376-.064-4.224-.128-6.944A20.962,20.962,0,0,1,195.84-11.1c3.04,0,5.5,1.472,5.5,4.192,0,2.944-2.56,4.448-5.376,4.992a16.365,16.365,0,0,1-3.744.224L193.12.9a24.266,24.266,0,0,0,3.968-.448c4.384-1.056,6.816-3.52,6.816-7.392,0-3.84-3.36-6.368-8.032-6.368a24.2,24.2,0,0,0-7.04,1.184v-1.12c0-1.28.032-2.816.064-4.32a58.746,58.746,0,0,0,6.72-1.12l-.064-2.5a43.036,43.036,0,0,1-6.592,1.28c.032-1.44.1-2.688.128-3.456A20.53,20.53,0,0,1,189.312-25.568Zm9.92,3.552L198.08-20.1a40.591,40.591,0,0,1,7.168,4.8l1.312-2.048A58.166,58.166,0,0,0,199.232-22.016Zm-17.216,17.6c0-1.44,1.952-3.3,4.576-4.512.032,2.336.1,4.512.1,5.664,0,1.056-.448,1.568-1.184,1.568C184.256-1.7,182.016-2.944,182.016-4.416Zm52.96-17.376h-6.144v3.328c0,1.92.672,2.4,3.04,2.4h4.288c1.7,0,2.3-.576,2.528-2.72a5.759,5.759,0,0,1-1.76-.672c-.1,1.5-.256,1.7-1.024,1.7H232.1c-1.056,0-1.248-.128-1.248-.736v-1.632h6.24v-5.408h-8.864v1.664h6.752Zm-10.3,0H218.4v3.328c0,1.92.608,2.4,2.976,2.4h3.968c1.632,0,2.24-.544,2.464-2.624a4.489,4.489,0,0,1-1.76-.672c-.1,1.408-.256,1.6-1.024,1.6h-3.456c-1.024,0-1.184-.128-1.184-.7v-1.664h6.3v-5.408h-8.864v1.664h6.848Zm.512,10.272h5.248v3.04h-5.248ZM238.5-8.48H232.7v-3.04h4.8v-1.824h-4.8v-2.3h-2.272v2.3h-5.248v-2.3h-2.208v2.3H218.24v1.824h4.736v3.04h-5.76v1.856H238.5Zm-.48,6.112a39.169,39.169,0,0,0-6.464-3.84l-1.7,1.056a30.929,30.929,0,0,1,5.856,3.808Zm-13.984-3.9a21.133,21.133,0,0,1-5.952,3.36,11.469,11.469,0,0,1,1.76,1.5,27.5,27.5,0,0,0,6.3-4.128ZM216.608-20.7a21.96,21.96,0,0,0-4.9-5.312L209.888-24.8a21.909,21.909,0,0,1,4.736,5.44Zm-.736,6.464h-6.144V-12h3.936v8.256a47.385,47.385,0,0,1-4.32,3.68l1.248,2.208c1.536-1.408,2.976-2.752,4.32-4.16,1.984,2.528,4.9,3.68,9.12,3.84,3.616.128,10.528.064,14.144-.1a8.042,8.042,0,0,1,.768-2.24c-3.9.256-11.36.352-14.976.192-3.744-.16-6.592-1.248-8.1-3.648Zm47.168-8.928-2.528.736c.224.8.48,1.6.736,2.336,2.08,11.9-.608,19.584-8,19.584-3.264,0-6.24-1.5-6.24-6.048,0-6.56,4.9-12.16,6.912-13.664a13.274,13.274,0,0,1,1.7-.576l-.768-2.24a48.211,48.211,0,0,1-10.08,1.6,15.516,15.516,0,0,1-1.728,0l.192,2.688c.64-.128,1.184-.192,1.792-.288,1.152-.128,3.808-.448,5.408-.7-2.816,3.168-5.92,7.776-5.92,13.728,0,5.312,3.648,8.128,8.672,8.128,8.864,0,11.3-7.712,10.624-15.808a25.654,25.654,0,0,0,4.32,6.368l1.7-2.272C265.088-13.824,263.712-19.3,263.04-23.168Zm2.784-1.792-1.6.544a40.374,40.374,0,0,1,2.144,4.576l1.664-.64C267.488-21.792,266.464-23.776,265.824-24.96Zm3.264-1.248-1.568.608a32.36,32.36,0,0,1,2.176,4.48l1.664-.608C270.752-23.072,269.792-25.024,269.088-26.208ZM279.3-22.336l-3.1-.064a14.436,14.436,0,0,1,.224,2.848c0,1.856.064,5.76.352,8.544.864,8.288,3.776,11.3,6.816,11.3,2.144,0,4.1-1.856,6.016-7.3L287.584-9.28c-.832,3.2-2.336,6.528-3.968,6.528-2.272,0-3.84-3.552-4.352-8.9-.224-2.656-.256-5.568-.224-7.584A24.366,24.366,0,0,1,279.3-22.336Zm16.672.9-2.5.864c3.072,3.744,4.992,10.3,5.568,16.1l2.56-1.056C301.12-10.944,298.816-17.728,295.968-21.44ZM322.016-7.648l-2.4-.224a20,20,0,0,0-.48,3.776c0,3.168,2.752,4.7,7.808,4.7A42.541,42.541,0,0,0,333.12.16l.1-2.592a30.8,30.8,0,0,1-6.24.64c-4.576,0-5.408-1.472-5.408-2.976A11.315,11.315,0,0,1,322.016-7.648Zm-3.68-17.536-3.072-.256a12.793,12.793,0,0,1-.1,2.656c-.1.64-.256,1.664-.48,2.784-1.248.1-2.4.16-3.456.16a28.989,28.989,0,0,1-3.84-.224l.1,2.5c1.152.064,2.3.128,3.712.128.9,0,1.888-.032,2.944-.1-.256,1.152-.544,2.368-.832,3.424C312.128-9.6,309.856-3.1,307.936.192l2.816.96A98.072,98.072,0,0,0,315.744-13.5c.384-1.408.736-2.88,1.024-4.288a61.451,61.451,0,0,0,6.656-1.088v-2.528a47.377,47.377,0,0,1-6.144,1.152c.192-.864.352-1.7.48-2.368C317.888-23.264,318.144-24.48,318.336-25.184Zm3.008,9.76v2.368a52.585,52.585,0,0,1,5.952-.32,40.459,40.459,0,0,1,5.376.384l.064-2.432a51.219,51.219,0,0,0-5.536-.288C325.152-15.712,323.04-15.584,321.344-15.424ZM353.056-7.2l-2.4-.224a17.949,17.949,0,0,0-.48,3.776c0,3.168,2.752,4.736,7.808,4.736a42.151,42.151,0,0,0,6.176-.48l.1-2.592a30.8,30.8,0,0,1-6.24.64c-4.576,0-5.408-1.472-5.408-2.976A11.315,11.315,0,0,1,353.056-7.2Zm-3.68-17.5L346.3-24.96a12.557,12.557,0,0,1-.1,2.624c-.1.64-.256,1.664-.48,2.784-1.248.1-2.4.16-3.456.16a28.989,28.989,0,0,1-3.84-.224l.1,2.5c1.152.064,2.3.128,3.712.128.9,0,1.888-.032,2.944-.1-.256,1.152-.544,2.368-.832,3.424C343.168-9.152,340.9-2.656,338.976.64l2.816.96a96.834,96.834,0,0,0,4.992-14.656c.384-1.408.7-2.88,1.024-4.288a61.449,61.449,0,0,0,6.656-1.088v-2.5a53.471,53.471,0,0,1-6.144,1.12c.16-.864.352-1.664.48-2.368C348.928-22.816,349.184-24.032,349.376-24.7Zm3.008,9.728v2.4a52.593,52.593,0,0,1,5.952-.352,40.459,40.459,0,0,1,5.376.384l.064-2.432a51.22,51.22,0,0,0-5.536-.288C356.192-15.264,354.08-15.136,352.384-14.976Zm7.936-8.768-1.7.736a36.57,36.57,0,0,1,2.592,4.448l1.728-.768A35.682,35.682,0,0,0,360.32-23.744Zm3.52-1.312-1.664.736a34.028,34.028,0,0,1,2.656,4.448l1.728-.768A41.16,41.16,0,0,0,363.84-25.056Zm28.672.1h-2.976a19.24,19.24,0,0,1,.288,1.92c.064.8.16,2.944.192,4.96-1.344.064-2.72.1-4.032.1a35.881,35.881,0,0,1-5.152-.352v2.56c1.376.1,3.648.192,5.184.192,1.312,0,2.688-.032,4.064-.1v.992c0,6.144-.192,9.76-3.616,12.768a10.493,10.493,0,0,1-3.1,1.984L385.7,1.888c6.784-4,6.784-9.216,6.784-16.576v-1.12c1.92-.128,3.712-.32,5.184-.544v-2.624a37.893,37.893,0,0,1-5.216.736c-.032-1.984-.064-4.128-.032-4.832A16.487,16.487,0,0,1,392.512-24.96Zm-16.192.48-2.976-.288a13.286,13.286,0,0,1-.16,2.144,86.436,86.436,0,0,0-1.216,12.768,35.653,35.653,0,0,0,1.7,10.144L375.84.032c-.032-.32-.064-.768-.1-1.088a4.83,4.83,0,0,1,.16-1.44c.352-1.568,1.312-4.832,2.08-7.072l-1.376-.832c-.608,1.6-1.28,3.552-1.728,4.9-1.216-5.248-.128-12.256.9-16.9C375.936-23.008,376.16-23.872,376.32-24.48ZM408.352-3.36c0-1.472,1.664-2.656,4.7-2.656a14.192,14.192,0,0,1,3.1.32c0,.832.032,1.6.032,2.144,0,2.208-1.568,2.784-3.392,2.784C409.632-.768,408.352-1.888,408.352-3.36ZM418.5-25.408h-2.72a17.563,17.563,0,0,1,.128,1.92v2.272h-1.472a58.142,58.142,0,0,1-8.192-.7l.032,2.368c2.016.224,5.952.544,8.192.544h1.408v4.48h-1.728a59.2,59.2,0,0,1-8.064-.608l.032,2.4c2.3.256,5.824.448,8,.448h1.824c.032,1.376.1,2.912.128,4.352a18.327,18.327,0,0,0-2.688-.192c-4.608,0-7.392,1.984-7.392,4.9,0,3.072,2.5,4.7,7.1,4.7,4.16,0,5.632-2.272,5.632-4.48,0-.512-.032-1.184-.064-1.984A23.592,23.592,0,0,1,426.4-.16l1.472-2.272a25.465,25.465,0,0,0-9.344-4.992c-.064-1.536-.16-3.264-.224-4.928,3.04-.1,5.856-.352,8.864-.736l.032-2.4a79.628,79.628,0,0,1-8.928.864V-19.1c3.072-.16,6.112-.448,8.64-.736l.032-2.336a79.565,79.565,0,0,1-8.672.864c0-.832.032-1.536.032-1.952A16.014,16.014,0,0,1,418.5-25.408Zm33.728.064h-2.912c.032.256.16,1.184.192,2.016.032.448.064,1.216.064,2.112-4.768.064-10.784.256-14.336.32l.064,2.464c4-.288,9.44-.512,14.3-.544.032,1.12.032,2.272.032,3.232a6.407,6.407,0,0,0-2.144-.352,5.585,5.585,0,0,0-5.632,5.568A5.094,5.094,0,0,0,447.1-5.184a4.507,4.507,0,0,0,2.784-.864c-1.28,2.912-4.224,4.7-8.48,5.664l2.144,2.112c7.456-2.24,9.568-7.04,9.568-11.36a7.776,7.776,0,0,0-1.024-4.1c-.032-1.472-.064-3.456-.064-5.28h.448c4.672,0,7.584.064,9.376.16l.032-2.368c-1.536,0-5.472-.032-9.376-.032h-.48c0-.864.032-1.6.032-2.08C452.1-23.744,452.16-24.992,452.224-25.344ZM444.256-10.56a3.261,3.261,0,0,1,3.232-3.392,2.869,2.869,0,0,1,2.848,2.016c.288,3.04-.928,4.544-2.816,4.544A3.082,3.082,0,0,1,444.256-10.56Zm22.912,2.752A4.882,4.882,0,0,0,462.3-2.944a4.889,4.889,0,0,0,4.864,4.9,4.876,4.876,0,0,0,4.9-4.9A4.869,4.869,0,0,0,467.168-7.808Zm0,8.128a3.25,3.25,0,0,1-3.232-3.264,3.265,3.265,0,0,1,3.232-3.232,3.25,3.25,0,0,1,3.264,3.232A3.237,3.237,0,0,1,467.168.32Z" transform="translate(468.72 1051)"/>
    <g id="グループ_37" data-name="グループ 37" transform="translate(13 -12)">
      <g id="グループ_35" data-name="グループ 35">
        <rect id="長方形_17" data-name="長方形 17" width="240" height="10" transform="translate(387 1165)" fill="#eb4e45"/>
        <path id="パス_53" data-name="パス 53" d="M21.42-22.4l-1.484.644A31.669,31.669,0,0,1,22.2-17.892l1.512-.672A39.683,39.683,0,0,0,21.42-22.4Zm3.08-1.12-1.484.644A29.1,29.1,0,0,1,25.34-19.04l1.512-.672A40.063,40.063,0,0,0,24.5-23.52ZM13.888-21.056l-2.576-.868a10.384,10.384,0,0,1-.868,2.24A23.453,23.453,0,0,1,1.652-10.22L3.584-8.792A27.018,27.018,0,0,0,10.7-15.68h9.436A22.735,22.735,0,0,1,15.68-6.944,22.425,22.425,0,0,1,4.48.084L6.524,1.932A24.924,24.924,0,0,0,17.668-5.684a27.387,27.387,0,0,0,4.956-9.66,8.8,8.8,0,0,1,.644-1.484l-1.848-1.12a5.362,5.362,0,0,1-1.82.252H12.012c.224-.392.448-.784.644-1.176C12.936-19.376,13.44-20.328,13.888-21.056ZM42.672-.588,44.156.644A5.991,5.991,0,0,1,45.108,0a27.836,27.836,0,0,0,9.548-7.756L53.34-9.66a21.514,21.514,0,0,1-8.176,6.888V-18.928A17.326,17.326,0,0,1,45.276-21H42.7a13.289,13.289,0,0,1,.168,2.072V-2.156A6.667,6.667,0,0,1,42.672-.588ZM29.848-.728,31.948.7A15.649,15.649,0,0,0,36.932-7c.756-2.8.868-8.792.868-11.9,0-.84.112-1.68.14-2.016H35.364a10.315,10.315,0,0,1,.2,2.044c0,3.108-.028,8.708-.84,11.256A13.29,13.29,0,0,1,29.848-.728Zm29.008-11.4V-9.38c.868-.084,2.352-.14,3.892-.14H78.12c1.26,0,2.436.112,3,.14v-2.744c-.616.056-1.624.14-3.024.14H62.748C61.18-11.984,59.7-12.068,58.856-12.124Zm46-7.98a1.87,1.87,0,0,1,1.848-1.876,1.876,1.876,0,0,1,1.876,1.876,1.87,1.87,0,0,1-1.876,1.848A1.864,1.864,0,0,1,104.86-20.1Zm-1.288,0a3.155,3.155,0,0,0,.14.9c-.336.028-.644.028-.9.028H88.76a21.61,21.61,0,0,1-2.8-.2v2.492c.728-.028,1.68-.084,2.8-.084h14.308A20.956,20.956,0,0,1,99.4-7.84c-2.324,3-5.488,5.376-10.92,6.72l1.9,2.1A21.2,21.2,0,0,0,101.416-6.5c2.212-2.884,3.584-7.392,4.172-10.332a1.445,1.445,0,0,0,.056-.308,3.385,3.385,0,0,0,1.064.168,3.155,3.155,0,0,0,3.164-3.136,3.179,3.179,0,0,0-3.164-3.164A3.155,3.155,0,0,0,103.572-20.1Zm16.408-2.352h-7.14v1.68h7.14ZM118.412-5.544V-.868h-4V-5.544ZM120.2-7.252h-7.56V2.1h1.764V.84h5.8Zm-7.5-2.156h7.392V-11.06H112.7Zm7.392-5.46H112.7v1.652h7.392Zm-8.6-2.156h9.324v-1.708H111.5ZM129.92-3.948V-5.964h3.808v2.016Zm-5.432-2.016h3.668v2.016h-3.668Zm3.668-3.5V-7.42h-3.668V-9.464Zm5.572,0V-7.42H129.92V-9.464Zm-6.748-6.692H131.4v1.876H126.98Zm0-3.3H131.4V-17.7H126.98ZM137.2-3.948h-1.54v-7.084h-5.74v-1.6h7.252V-14.28H133.28v-1.876h2.912V-17.7H133.28V-19.46h3.472v-1.6H133.28v-2.352H131.4v2.352H126.98v-2.352h-1.9v2.352h-3.3v1.6h3.3V-17.7h-2.744v1.54h2.744v1.876h-4.06v1.652h7.14v1.6h-5.488v7.084h-1.68v1.68h1.68v4.4h1.82v-4.4h9.24v2.3c0,.336-.084.42-.476.42-.336.028-1.6.028-2.94,0a7.32,7.32,0,0,1,.532,1.68,12.747,12.747,0,0,0,3.836-.308c.756-.28.98-.784.98-1.764V-2.268h1.54Zm15.736-8.232c2.128-.784,4.844-1.792,7.42-2.772l-.308-1.54c-2.912,1.036-5.852,2.072-7.868,2.716Zm5.488-5.32a15.443,15.443,0,0,0-3.752-2.548l-1.092,1.26a13.364,13.364,0,0,1,3.7,2.66Zm-9.3,4.676c0,.308-.084.42-.42.42-.336.028-1.456.028-2.688,0a7.716,7.716,0,0,1,.532,1.54,11.958,11.958,0,0,0,3.612-.252c.672-.28.9-.756.9-1.68v-9.212H140.448V-20.3h8.68Zm-7.5-5.992a14.379,14.379,0,0,1,3.64,2.744l1.12-1.344a15.456,15.456,0,0,0-3.668-2.632Zm5.656,2.856c-2.772,1.092-5.6,2.128-7.5,2.716l.812,1.708c2.016-.784,4.536-1.82,7-2.884ZM159.208-5.012h-13.58V-7.728h13.58Zm-13.58,4.48V-3.36h13.58V-.532Zm5.6-11.452a24.086,24.086,0,0,1-1.092,2.632h-6.552V2.212h2.044V1.12h13.58V2.212h2.1V-9.352H152.18c.392-.672.812-1.456,1.2-2.212ZM163.52-22.008h-10.7V-20.3h8.736v7.5c0,.336-.112.42-.448.448-.392,0-1.6,0-2.912-.056a6.144,6.144,0,0,1,.588,1.652,12.785,12.785,0,0,0,3.78-.28c.728-.308.952-.784.952-1.764Z" transform="translate(424.348 1151.52)"/>
      </g>
      <g id="グループ_36" data-name="グループ 36">
        <rect id="長方形_18" data-name="長方形 18" width="240" height="10" transform="translate(759 1165)" fill="#0158a8"/>
        <path id="パス_54" data-name="パス 54" d="M18.48-21.924h-2.6a23.232,23.232,0,0,1,.252,2.352c.028.644.056,1.6.084,2.716H6.02a25.407,25.407,0,0,1-2.576-.168v2.38c.868-.056,1.68-.084,2.632-.084h9.212A35.244,35.244,0,0,1,2.408-3.948l1.624,1.82a38.9,38.9,0,0,0,12.236-10.5c.056,3.752.084,7.924.084,10.164,0,.756-.224,1.12-1.036,1.12a26.491,26.491,0,0,1-3.948-.336l.2,2.3c1.372.112,3.024.168,4.48.168,1.68,0,2.548-.784,2.548-2.24-.028-3.5-.112-9.072-.2-13.272h4.452c.672,0,1.652.028,2.3.056v-2.352c-.56.056-1.652.168-2.38.168h-4.4c-.028-1.12-.056-2.072-.056-2.716A16.611,16.611,0,0,1,18.48-21.924Zm15.876,1.4-1.6,1.708a58.152,58.152,0,0,1,6.972,5.852L41.5-14.728A61.312,61.312,0,0,0,34.356-20.524ZM31.948-1.764l1.484,2.3a30.691,30.691,0,0,0,11-4.34,27.975,27.975,0,0,0,9.408-9.968L52.5-16.156a26.377,26.377,0,0,1-9.352,10.3A28.911,28.911,0,0,1,31.948-1.764Zm30.52-19.1v2.324c.756-.056,1.652-.084,2.52-.084H75.964c.952,0,1.9.028,2.576.084V-20.86a17.44,17.44,0,0,1-2.548.14h-11A17.509,17.509,0,0,1,62.468-20.86Zm18.116,7.392-1.6-1.008a3.72,3.72,0,0,1-1.54.224H62.692a26.464,26.464,0,0,1-2.744-.168v2.352c1.008-.056,2.072-.084,2.744-.084H77.56a14.314,14.314,0,0,1-3.332,6.188A18.658,18.658,0,0,1,64.372-.84l1.736,1.988A20.276,20.276,0,0,0,76.132-4.7a19.283,19.283,0,0,0,4.088-7.952A4.9,4.9,0,0,1,80.584-13.468Zm5.824,3.36,1.12,2.184A55.307,55.307,0,0,0,98.2-12.488v10.36a25.973,25.973,0,0,1-.168,3h2.744a21.129,21.129,0,0,1-.168-3V-13.944a45.808,45.808,0,0,0,7.56-6.244l-1.876-1.736a33.362,33.362,0,0,1-7.644,6.58A46.285,46.285,0,0,1,86.408-10.108Zm31.948-10.416-1.6,1.708a58.152,58.152,0,0,1,6.972,5.852l1.764-1.764A61.313,61.313,0,0,0,118.356-20.524Zm-2.408,18.76,1.484,2.3a30.691,30.691,0,0,0,11-4.34,27.975,27.975,0,0,0,9.408-9.968l-1.344-2.38a26.377,26.377,0,0,1-9.352,10.3A28.911,28.911,0,0,1,115.948-1.764ZM149.66-22.456h-7.14v1.68h7.14ZM148.092-5.544V-.868h-4V-5.544Zm1.792-1.708h-7.56V2.1h1.764V.84h5.8Zm-7.5-2.156h7.392V-11.06H142.38Zm7.392-5.46H142.38v1.652h7.392Zm-8.6-2.156H150.5v-1.708h-9.324ZM159.6-3.948V-5.964h3.808v2.016Zm-5.432-2.016h3.668v2.016h-3.668Zm3.668-3.5V-7.42h-3.668V-9.464Zm5.572,0V-7.42H159.6V-9.464Zm-6.748-6.692h4.424v1.876H156.66Zm0-3.3h4.424V-17.7H156.66ZM166.88-3.948h-1.54v-7.084H159.6v-1.6h7.252V-14.28H162.96v-1.876h2.912V-17.7H162.96V-19.46h3.472v-1.6H162.96v-2.352h-1.876v2.352H156.66v-2.352h-1.9v2.352h-3.3v1.6h3.3V-17.7h-2.744v1.54h2.744v1.876H150.7v1.652h7.14v1.6h-5.488v7.084h-1.68v1.68h1.68v4.4h1.82v-4.4h9.24v2.3c0,.336-.084.42-.476.42-.336.028-1.6.028-2.94,0a7.32,7.32,0,0,1,.532,1.68,12.747,12.747,0,0,0,3.836-.308c.756-.28.98-.784.98-1.764V-2.268h1.54Zm15.736-8.232c2.128-.784,4.844-1.792,7.42-2.772l-.308-1.54c-2.912,1.036-5.852,2.072-7.868,2.716ZM188.1-17.5a15.443,15.443,0,0,0-3.752-2.548l-1.092,1.26a13.364,13.364,0,0,1,3.7,2.66Zm-9.3,4.676c0,.308-.084.42-.42.42-.336.028-1.456.028-2.688,0a7.716,7.716,0,0,1,.532,1.54,11.958,11.958,0,0,0,3.612-.252c.672-.28.9-.756.9-1.68v-9.212H170.128V-20.3h8.68Zm-7.5-5.992a14.379,14.379,0,0,1,3.64,2.744l1.12-1.344a15.456,15.456,0,0,0-3.668-2.632Zm5.656,2.856c-2.772,1.092-5.6,2.128-7.5,2.716l.812,1.708c2.016-.784,4.536-1.82,7-2.884ZM188.888-5.012h-13.58V-7.728h13.58Zm-13.58,4.48V-3.36h13.58V-.532Zm5.6-11.452a24.086,24.086,0,0,1-1.092,2.632h-6.552V2.212h2.044V1.12h13.58V2.212h2.1V-9.352H181.86c.392-.672.812-1.456,1.2-2.212ZM193.2-22.008H182.5V-20.3h8.736v7.5c0,.336-.112.42-.448.448-.392,0-1.6,0-2.912-.056a6.144,6.144,0,0,1,.588,1.652,12.785,12.785,0,0,0,3.78-.28c.728-.308.952-.784.952-1.764Z" transform="translate(781.592 1151.408)"/>
      </g>
    </g>
    <path id="多角形_1" data-name="多角形 1" d="M170.5,0,341,48H0Z" transform="translate(876 1279) rotate(180)" fill="#45ccc4"/>
  </g>
</svg>
